<svg xmlns="http://www.w3.org/2000/svg" viewBox="0 0 24 24" fill="currentColor" aria-hidden="true">
  <path d="M12 .5C5.65.5.5 5.65.5 12a11.5 11.5 0 0 0 7.86 10.92c.58.11.79-.25.79-.56v-2.02c-3.2.7-3.88-1.36-3.88-1.36-.52-1.34-1.28-1.69-1.28-1.69-1.04-.71.08-.7.08-.7 1.15.08 1.75 1.18 1.75 1.18 1.02 1.74 2.68 1.24 3.34.95.1-.74.4-1.24.72-1.53-2.55-.29-5.24-1.28-5.24-5.68 0-1.25.44-2.27 1.17-3.07-.12-.29-.51-1.45.11-3.02 0 0 .95-.3 3.12 1.17a10.8 10.8 0 0 1 5.68 0c2.17-1.47 3.12-1.17 3.12-1.17.62 1.57.23 2.73.11 3.02.73.8 1.17 1.82 1.17 3.07 0 4.41-2.69 5.39-5.25 5.67.41.36.78 1.08.78 2.18v3.24c0 .31.21.67.8.56A11.5 11.5 0 0 0 23.5 12C23.5 5.65 18.35.5 12 .5Z"/>
</svg>
